<!-- Generated by IcoMoon.io -->
<svg version="1.1" xmlns="http://www.w3.org/2000/svg" width="1420" height="1024" viewBox="0 0 1420 1024">
<title>TMDB_logo-square</title>
<g id="icomoon-ignore">
</g>
<path fill="#000" d="M391.945 512v0c0-0.068 0-0.149 0-0.23 0-74.911 60.727-135.638 135.638-135.638 0 0 0 0 0 0h-0.768c0 0 0 0 0 0 74.911 0 135.638 60.727 135.638 135.638 0 0.081 0 0.162 0 0.243v-0.013c0 74.911-60.727 135.638-135.638 135.638v0h0.768c-74.911 0-135.638-60.727-135.638-135.638v0zM1026.533 271.506h252.546c74.911 0 135.638-60.727 135.638-135.638v0c0-0.068 0-0.149 0-0.23 0-74.911-60.727-135.638-135.638-135.638 0 0 0 0 0 0h-252.546c0 0 0 0 0 0-74.911 0-135.638 60.727-135.638 135.638 0 0.081 0 0.162 0 0.243v-0.013c0 74.911 60.727 135.638 135.638 135.638v0zM159.127 1023.77h490.507c74.911 0 135.638-60.727 135.638-135.638v0c0-0.068 0-0.149 0-0.23 0-74.911-60.727-135.638-135.638-135.638 0 0 0 0 0 0h-490.507c0 0 0 0 0 0-74.911 0-135.638 60.727-135.638 135.638 0 0.081 0 0.162 0 0.243v-0.013c0 74.911 60.727 135.638 135.638 135.638v0zM803.31 647.638h47.976l112.072-271.506h-64.096l-68.318 178.087h-0.768l-67.166-178.087h-68.318zM1052.402 647.638h59.874v-271.506h-59.874zM1222.813 647.638h191.52v-55.038h-131.646v-55.268h117.829v-55.268h-117.829v-50.663h124.738v-55.268h-184.228zM77.529 271.736h59.874v-218.771h77.529v-52.966h-214.933v52.966h77.529zM299.37 271.736h59.874v-117.445h115.91v117.445h59.874v-271.736h-59.874v101.325h-116.294v-101.325h-59.49zM616.012 271.736h191.904v-55.268h-132.414v-55.268h117.829v-55.268h-117.829v-50.663h124.738v-55.268h-184.228zM9.595 647.868h59.49v-208.408h0.768l69.085 208.408h45.289l71.388-208.408h0.768v208.408h59.874v-271.736h-90.195l-62.945 177.319h-0.768l-62.561-177.319h-90.579zM870.016 1024h97.18c0.289 0.002 0.632 0.003 0.975 0.003 20.38 0 40.005-3.23 58.392-9.205l-1.335 0.375c18.7-5.94 34.917-14.766 49.037-26.097l-0.294 0.228c13.938-11.405 25.236-25.476 33.216-41.49l0.329-0.729c8.331-16.653 13.208-36.281 13.208-57.048 0-0.4-0.002-0.799-0.005-1.199v0.061c0.037-1.213 0.058-2.639 0.058-4.071 0-21.492-4.774-41.869-13.321-60.128l0.366 0.871c-8.294-17.076-20.036-31.3-34.412-42.242l-0.284-0.208c-14.669-10.628-31.977-18.658-50.7-22.995l-0.96-0.187c-18.586-4.839-39.93-7.636-61.922-7.676h-89.913zM929.967 807.532h35.31c0.142-0.001 0.309-0.001 0.477-0.001 12.586 0 24.766 1.738 36.313 4.987l-0.942-0.226c11.377 3.151 21.309 8.102 30.020 14.6l-0.237-0.169c8.428 6.46 15.218 14.625 19.931 24.012l0.181 0.398c4.851 9.71 7.69 21.152 7.69 33.258 0 0.506-0.005 1.010-0.015 1.514l0.001-0.075c0.018 0.669 0.028 1.457 0.028 2.247 0 13.296-2.836 25.929-7.936 37.329l0.232-0.58c-4.764 10.344-11.726 18.955-20.333 25.52l-0.162 0.119c-8.698 6.442-18.987 11.307-30.139 13.935l-0.566 0.112c-11.168 2.686-23.989 4.226-37.171 4.226-0.425 0-0.85-0.002-1.275-0.005h-31.791zM1207.384 1024h111.304c12.874-0.030 25.406-1.426 37.479-4.052l-1.171 0.214c12.368-2.515 23.348-6.908 33.231-12.922l-0.454 0.257c9.691-5.848 17.668-13.581 23.625-22.748l0.171-0.28c5.814-9.579 9.255-21.157 9.255-33.54 0-0.839-0.016-1.674-0.047-2.505l0.004 0.12c0.001-0.166 0.002-0.363 0.002-0.56 0-8.613-1.549-16.864-4.382-24.49l0.158 0.486c-2.821-7.783-6.917-14.472-12.095-20.16l0.043 0.048c-5.259-5.747-11.486-10.503-18.44-14.032l-0.366-0.169c-7.077-3.696-15.304-6.391-24.001-7.628l-0.409-0.048v-0.768c13.619-3.997 25.16-11.539 33.935-21.564l0.071-0.082c8.010-9.736 12.867-22.33 12.867-36.057 0-0.817-0.017-1.63-0.051-2.439l0.004 0.116c0.049-0.933 0.076-2.026 0.076-3.125 0-12.014-3.309-23.254-9.065-32.86l0.162 0.291c-5.769-8.865-13.539-15.972-22.698-20.797l-0.331-0.159c-9.282-4.85-20.078-8.358-31.495-9.921l-0.515-0.058c-10.662-1.544-22.988-2.436-35.518-2.456h-101.347zM1267.258 802.927h40.684c5.038 0.028 9.946 0.502 14.711 1.383l-0.51-0.078c4.897 0.87 9.277 2.42 13.287 4.568l-0.237-0.116c3.879 2.094 7.059 5.029 9.382 8.577l0.060 0.097c2.28 3.671 3.631 8.126 3.631 12.896 0 0.378-0.008 0.754-0.025 1.127l0.002-0.053c0.007 0.234 0.011 0.509 0.011 0.786 0 4.768-1.197 9.256-3.308 13.18l0.073-0.148c-2.124 3.785-5.054 6.886-8.572 9.15l-0.102 0.061c-3.455 2.253-7.487 3.979-11.807 4.944l-0.244 0.046c-4.102 0.967-8.815 1.526-13.657 1.535h-44.067zM1267.258 911.544h45.289c5.577 0.029 11.030 0.446 16.365 1.227l-0.629-0.076c5.723 0.796 10.897 2.274 15.742 4.372l-0.389-0.15c4.856 2.024 8.928 5.086 12.086 8.928l0.043 0.053c2.984 3.959 4.779 8.96 4.779 14.381 0 0.342-0.007 0.682-0.021 1.020l0.002-0.048c0.013 0.316 0.020 0.687 0.020 1.060 0 5.109-1.345 9.904-3.701 14.050l0.074-0.141c-2.406 4.039-5.574 7.379-9.332 9.909l-0.11 0.070c-3.662 2.471-7.958 4.335-12.578 5.33l-0.241 0.044c-4.211 0.95-9.057 1.508-14.027 1.535h-53.753z"></path>
</svg>
